<svg width="119" height="40" viewBox="0 0 119 40" fill="none" xmlns="http://www.w3.org/2000/svg">
<path d="M58.135 16.906C58.135 17.4273 58.0273 17.8807 57.812 18.266C57.5967 18.6513 57.302 18.9743 56.928 19.235C56.554 19.4843 56.1177 19.677 55.619 19.813C55.1203 19.9377 54.5933 20 54.038 20H48.156V7.93H54.871C55.2903 7.93 55.67 8.02067 56.01 8.202C56.35 8.38333 56.639 8.62133 56.877 8.916C57.115 9.19933 57.2963 9.528 57.421 9.902C57.557 10.2647 57.625 10.6387 57.625 11.024C57.625 11.602 57.4777 12.146 57.183 12.656C56.8997 13.166 56.469 13.5513 55.891 13.812C56.5823 14.016 57.1263 14.3787 57.523 14.9C57.931 15.4213 58.135 16.09 58.135 16.906ZM55.296 16.345C55.296 15.971 55.1883 15.6537 54.973 15.393C54.7577 15.1323 54.4857 15.002 54.157 15.002H50.944V17.637H54.038C54.4007 17.637 54.701 17.518 54.939 17.28C55.177 17.042 55.296 16.7303 55.296 16.345ZM50.944 10.31V12.809H53.681C53.987 12.809 54.259 12.707 54.497 12.503C54.735 12.299 54.854 11.9817 54.854 11.551C54.854 11.1543 54.7463 10.8483 54.531 10.633C54.327 10.4177 54.0777 10.31 53.783 10.31H50.944ZM63.8061 20.17C63.0468 20.17 62.3668 20.0453 61.7661 19.796C61.1768 19.5467 60.6781 19.2123 60.2701 18.793C59.8621 18.3623 59.5504 17.8693 59.3351 17.314C59.1311 16.7473 59.0291 16.158 59.0291 15.546C59.0291 14.934 59.1311 14.3503 59.3351 13.795C59.5504 13.2283 59.8621 12.7353 60.2701 12.316C60.6781 11.8853 61.1768 11.5453 61.7661 11.296C62.3668 11.0353 63.0468 10.905 63.8061 10.905C64.5654 10.905 65.2398 11.0353 65.8291 11.296C66.4184 11.5453 66.9171 11.8853 67.3251 12.316C67.7331 12.7353 68.0448 13.2283 68.2601 13.795C68.4754 14.3503 68.5831 14.934 68.5831 15.546C68.5831 16.158 68.4754 16.7473 68.2601 17.314C68.0561 17.8693 67.7501 18.3623 67.3421 18.793C66.9341 19.2123 66.4298 19.5467 65.8291 19.796C65.2398 20.0453 64.5654 20.17 63.8061 20.17ZM61.8171 15.546C61.8171 16.2487 62.0041 16.8153 62.3781 17.246C62.7521 17.6653 63.2281 17.875 63.8061 17.875C64.0894 17.875 64.3501 17.8183 64.5881 17.705C64.8261 17.5917 65.0301 17.433 65.2001 17.229C65.3814 17.025 65.5231 16.7813 65.6251 16.498C65.7271 16.2033 65.7781 15.886 65.7781 15.546C65.7781 14.8433 65.5911 14.2823 65.2171 13.863C64.8431 13.4323 64.3728 13.217 63.8061 13.217C63.5228 13.217 63.2564 13.2737 63.0071 13.387C62.7691 13.5003 62.5594 13.659 62.3781 13.863C62.2081 14.067 62.0721 14.3163 61.9701 14.611C61.8681 14.8943 61.8171 15.206 61.8171 15.546ZM74.1821 20.17C73.4227 20.17 72.7427 20.0453 72.1421 19.796C71.5527 19.5467 71.0541 19.2123 70.6461 18.793C70.2381 18.3623 69.9264 17.8693 69.7111 17.314C69.5071 16.7473 69.4051 16.158 69.4051 15.546C69.4051 14.934 69.5071 14.3503 69.7111 13.795C69.9264 13.2283 70.2381 12.7353 70.6461 12.316C71.0541 11.8853 71.5527 11.5453 72.1421 11.296C72.7427 11.0353 73.4227 10.905 74.1821 10.905C74.9414 10.905 75.6157 11.0353 76.2051 11.296C76.7944 11.5453 77.2931 11.8853 77.7011 12.316C78.1091 12.7353 78.4207 13.2283 78.6361 13.795C78.8514 14.3503 78.9591 14.934 78.9591 15.546C78.9591 16.158 78.8514 16.7473 78.6361 17.314C78.4321 17.8693 78.1261 18.3623 77.7181 18.793C77.3101 19.2123 76.8057 19.5467 76.2051 19.796C75.6157 20.0453 74.9414 20.17 74.1821 20.17ZM72.1931 15.546C72.1931 16.2487 72.3801 16.8153 72.7541 17.246C73.1281 17.6653 73.6041 17.875 74.1821 17.875C74.4654 17.875 74.7261 17.8183 74.9641 17.705C75.2021 17.5917 75.4061 17.433 75.5761 17.229C75.7574 17.025 75.8991 16.7813 76.0011 16.498C76.1031 16.2033 76.1541 15.886 76.1541 15.546C76.1541 14.8433 75.9671 14.2823 75.5931 13.863C75.2191 13.4323 74.7487 13.217 74.1821 13.217C73.8987 13.217 73.6324 13.2737 73.3831 13.387C73.1451 13.5003 72.9354 13.659 72.7541 13.863C72.5841 14.067 72.4481 14.3163 72.3461 14.611C72.2441 14.8943 72.1931 15.206 72.1931 15.546ZM86.309 20L83.98 16.413L83.028 17.399V20H80.308V7.59H83.028V14.781L86.037 11.075H88.927L85.714 14.917L89.199 20H86.309ZM89.9868 20V11.075H92.7068V20H89.9868ZM89.9868 10.055V7.59H92.7068V10.055H89.9868ZM103.171 20H100.451V14.985C100.451 14.3957 100.337 13.9707 100.111 13.71C99.8955 13.438 99.6065 13.302 99.2438 13.302C99.0511 13.302 98.8585 13.3417 98.6658 13.421C98.4731 13.5003 98.2861 13.6137 98.1048 13.761C97.9235 13.897 97.7591 14.0613 97.6118 14.254C97.4758 14.4467 97.3681 14.6563 97.2888 14.883V20H94.5688V11.075H97.0168V12.571C97.3455 12.0383 97.8101 11.6303 98.4108 11.347C99.0115 11.0523 99.7028 10.905 100.485 10.905C101.063 10.905 101.527 11.0127 101.879 11.228C102.23 11.432 102.502 11.704 102.695 12.044C102.887 12.3727 103.012 12.7353 103.069 13.132C103.137 13.5287 103.171 13.914 103.171 14.288V20ZM108.446 20.034C107.857 20.034 107.318 19.915 106.831 19.677C106.344 19.439 105.924 19.116 105.573 18.708C105.233 18.3 104.967 17.824 104.774 17.28C104.581 16.736 104.485 16.1523 104.485 15.529C104.485 14.8717 104.587 14.2653 104.791 13.71C104.995 13.1433 105.278 12.656 105.641 12.248C106.004 11.8287 106.44 11.5 106.95 11.262C107.46 11.024 108.021 10.905 108.633 10.905C109.313 10.905 109.902 11.0523 110.401 11.347C110.911 11.6303 111.319 12.027 111.625 12.537V11.075H113.988V19.388C113.988 20.068 113.858 20.68 113.597 21.224C113.348 21.768 112.996 22.227 112.543 22.601C112.09 22.9863 111.546 23.281 110.911 23.485C110.276 23.689 109.579 23.791 108.82 23.791C107.857 23.791 107.035 23.638 106.355 23.332C105.675 23.026 105.08 22.584 104.57 22.006L106.032 20.527C106.361 20.901 106.769 21.1957 107.256 21.411C107.743 21.6377 108.265 21.751 108.82 21.751C109.149 21.751 109.46 21.7057 109.755 21.615C110.05 21.5243 110.31 21.3827 110.537 21.19C110.764 21.0087 110.939 20.765 111.064 20.459C111.2 20.1643 111.268 19.8073 111.268 19.388V18.521C110.996 19.0197 110.605 19.3993 110.095 19.66C109.585 19.9093 109.035 20.034 108.446 20.034ZM109.381 17.875C109.8 17.875 110.174 17.7617 110.503 17.535C110.832 17.297 111.087 16.9967 111.268 16.634V14.764C111.087 14.288 110.809 13.914 110.435 13.642C110.061 13.3587 109.664 13.217 109.245 13.217C108.95 13.217 108.678 13.285 108.429 13.421C108.191 13.5457 107.981 13.7213 107.8 13.948C107.63 14.1633 107.494 14.4183 107.392 14.713C107.301 14.9963 107.256 15.291 107.256 15.597C107.256 15.9257 107.307 16.2317 107.409 16.515C107.522 16.787 107.675 17.025 107.868 17.229C108.061 17.433 108.282 17.5917 108.531 17.705C108.792 17.8183 109.075 17.875 109.381 17.875ZM49.976 34.12C49.488 34.12 49.012 34.04 48.548 33.88C48.084 33.72 47.684 33.488 47.348 33.184L47.72 32.632C48.072 32.92 48.428 33.136 48.788 33.28C49.156 33.424 49.548 33.496 49.964 33.496C50.468 33.496 50.868 33.396 51.164 33.196C51.468 32.988 51.62 32.696 51.62 32.32C51.62 32.144 51.58 32 51.5 31.888C51.42 31.768 51.3 31.664 51.14 31.576C50.988 31.488 50.792 31.412 50.552 31.348C50.32 31.276 50.048 31.204 49.736 31.132C49.376 31.044 49.064 30.956 48.8 30.868C48.536 30.78 48.316 30.68 48.14 30.568C47.972 30.456 47.844 30.32 47.756 30.16C47.676 29.992 47.636 29.784 47.636 29.536C47.636 29.224 47.696 28.948 47.816 28.708C47.944 28.468 48.112 28.272 48.32 28.12C48.536 27.96 48.784 27.84 49.064 27.76C49.352 27.68 49.656 27.64 49.976 27.64C50.456 27.64 50.892 27.72 51.284 27.88C51.676 28.032 51.992 28.236 52.232 28.492L51.836 28.972C51.604 28.732 51.32 28.552 50.984 28.432C50.656 28.312 50.312 28.252 49.952 28.252C49.736 28.252 49.536 28.276 49.352 28.324C49.168 28.364 49.004 28.432 48.86 28.528C48.724 28.624 48.616 28.748 48.536 28.9C48.456 29.044 48.416 29.216 48.416 29.416C48.416 29.584 48.444 29.72 48.5 29.824C48.556 29.928 48.648 30.02 48.776 30.1C48.904 30.172 49.064 30.24 49.256 30.304C49.456 30.36 49.696 30.42 49.976 30.484C50.376 30.58 50.728 30.676 51.032 30.772C51.336 30.868 51.588 30.98 51.788 31.108C51.996 31.236 52.152 31.392 52.256 31.576C52.36 31.76 52.412 31.984 52.412 32.248C52.412 32.824 52.192 33.28 51.752 33.616C51.312 33.952 50.72 34.12 49.976 34.12ZM56.4477 34.12C55.9917 34.12 55.5717 34.036 55.1877 33.868C54.8117 33.692 54.4837 33.456 54.2037 33.16C53.9237 32.856 53.7037 32.508 53.5437 32.116C53.3917 31.724 53.3157 31.304 53.3157 30.856C53.3157 30.416 53.3917 30.004 53.5437 29.62C53.7037 29.228 53.9197 28.888 54.1917 28.6C54.4717 28.304 54.8037 28.072 55.1877 27.904C55.5717 27.728 55.9877 27.64 56.4357 27.64C56.8917 27.64 57.3077 27.728 57.6837 27.904C58.0677 28.072 58.3957 28.304 58.6677 28.6C58.9397 28.896 59.1517 29.236 59.3037 29.62C59.4557 30.004 59.5317 30.412 59.5317 30.844C59.5317 30.908 59.5317 30.972 59.5317 31.036C59.5317 31.1 59.5277 31.144 59.5197 31.168H54.1677C54.1917 31.504 54.2677 31.816 54.3957 32.104C54.5317 32.384 54.7037 32.628 54.9117 32.836C55.1197 33.044 55.3557 33.208 55.6197 33.328C55.8917 33.44 56.1797 33.496 56.4837 33.496C56.6837 33.496 56.8837 33.468 57.0837 33.412C57.2837 33.356 57.4677 33.28 57.6357 33.184C57.8037 33.088 57.9557 32.972 58.0917 32.836C58.2277 32.692 58.3317 32.536 58.4037 32.368L59.1117 32.56C59.0157 32.792 58.8797 33.004 58.7037 33.196C58.5277 33.38 58.3237 33.544 58.0917 33.688C57.8597 33.824 57.6037 33.928 57.3237 34C57.0437 34.08 56.7517 34.12 56.4477 34.12ZM58.7517 30.544C58.7277 30.208 58.6477 29.904 58.5117 29.632C58.3837 29.352 58.2157 29.112 58.0077 28.912C57.8077 28.712 57.5717 28.556 57.2997 28.444C57.0357 28.332 56.7517 28.276 56.4477 28.276C56.1437 28.276 55.8557 28.332 55.5837 28.444C55.3117 28.556 55.0717 28.712 54.8637 28.912C54.6637 29.112 54.4997 29.352 54.3717 29.632C54.2517 29.912 54.1797 30.216 54.1557 30.544H58.7517ZM63.9106 28.468C63.3586 28.484 62.8786 28.636 62.4706 28.924C62.0626 29.212 61.7746 29.608 61.6066 30.112V34H60.7906V27.748H61.5586V29.248C61.7906 28.768 62.1026 28.392 62.4946 28.12C62.8866 27.848 63.3066 27.712 63.7546 27.712C63.8186 27.712 63.8706 27.716 63.9106 27.724V28.468ZM66.8697 34L64.3257 27.748H65.1657L67.3137 33.244L69.4737 27.748H70.2657L67.7217 34H66.8697ZM71.3961 34V27.748H72.2121V34H71.3961ZM71.3961 26.44V25.24H72.2121V26.44H71.3961ZM73.5774 30.856C73.5774 30.416 73.6534 30 73.8054 29.608C73.9574 29.216 74.1694 28.876 74.4414 28.588C74.7214 28.292 75.0534 28.06 75.4374 27.892C75.8214 27.724 76.2454 27.64 76.7094 27.64C77.3014 27.64 77.8174 27.776 78.2574 28.048C78.6974 28.312 79.0294 28.672 79.2534 29.128L78.4614 29.38C78.2854 29.06 78.0374 28.812 77.7174 28.636C77.4054 28.452 77.0574 28.36 76.6734 28.36C76.3534 28.36 76.0534 28.424 75.7734 28.552C75.5014 28.68 75.2614 28.856 75.0534 29.08C74.8534 29.296 74.6934 29.556 74.5734 29.86C74.4614 30.164 74.4054 30.496 74.4054 30.856C74.4054 31.208 74.4654 31.54 74.5854 31.852C74.7054 32.164 74.8694 32.436 75.0774 32.668C75.2854 32.892 75.5254 33.072 75.7974 33.208C76.0774 33.336 76.3734 33.4 76.6854 33.4C76.8854 33.4 77.0814 33.372 77.2734 33.316C77.4734 33.26 77.6574 33.184 77.8254 33.088C77.9934 32.984 78.1374 32.868 78.2574 32.74C78.3774 32.612 78.4614 32.476 78.5094 32.332L79.3134 32.572C79.2254 32.796 79.0974 33.004 78.9294 33.196C78.7614 33.38 78.5614 33.544 78.3294 33.688C78.1054 33.824 77.8534 33.928 77.5734 34C77.3014 34.08 77.0174 34.12 76.7214 34.12C76.2654 34.12 75.8454 34.036 75.4614 33.868C75.0774 33.692 74.7454 33.456 74.4654 33.16C74.1854 32.856 73.9654 32.508 73.8054 32.116C73.6534 31.724 73.5774 31.304 73.5774 30.856ZM83.2367 34.12C82.7807 34.12 82.3607 34.036 81.9767 33.868C81.6007 33.692 81.2727 33.456 80.9927 33.16C80.7127 32.856 80.4927 32.508 80.3327 32.116C80.1807 31.724 80.1047 31.304 80.1047 30.856C80.1047 30.416 80.1807 30.004 80.3327 29.62C80.4927 29.228 80.7087 28.888 80.9807 28.6C81.2607 28.304 81.5927 28.072 81.9767 27.904C82.3607 27.728 82.7767 27.64 83.2247 27.64C83.6807 27.64 84.0967 27.728 84.4727 27.904C84.8567 28.072 85.1847 28.304 85.4567 28.6C85.7287 28.896 85.9407 29.236 86.0927 29.62C86.2447 30.004 86.3207 30.412 86.3207 30.844C86.3207 30.908 86.3207 30.972 86.3207 31.036C86.3207 31.1 86.3167 31.144 86.3087 31.168H80.9567C80.9807 31.504 81.0567 31.816 81.1847 32.104C81.3207 32.384 81.4927 32.628 81.7007 32.836C81.9087 33.044 82.1447 33.208 82.4087 33.328C82.6807 33.44 82.9687 33.496 83.2727 33.496C83.4727 33.496 83.6727 33.468 83.8727 33.412C84.0727 33.356 84.2567 33.28 84.4247 33.184C84.5927 33.088 84.7447 32.972 84.8807 32.836C85.0167 32.692 85.1207 32.536 85.1927 32.368L85.9007 32.56C85.8047 32.792 85.6687 33.004 85.4927 33.196C85.3167 33.38 85.1127 33.544 84.8807 33.688C84.6487 33.824 84.3927 33.928 84.1127 34C83.8327 34.08 83.5407 34.12 83.2367 34.12ZM85.5407 30.544C85.5167 30.208 85.4367 29.904 85.3007 29.632C85.1727 29.352 85.0047 29.112 84.7967 28.912C84.5967 28.712 84.3607 28.556 84.0887 28.444C83.8247 28.332 83.5407 28.276 83.2367 28.276C82.9327 28.276 82.6447 28.332 82.3727 28.444C82.1007 28.556 81.8607 28.712 81.6527 28.912C81.4527 29.112 81.2887 29.352 81.1607 29.632C81.0407 29.912 80.9687 30.216 80.9447 30.544H85.5407Z" fill="white"/>
<g clip-path="url(#clip0_627_2)">
<path d="M25.9805 20.293C26.6277 20.293 27.1523 20.8176 27.1523 21.4648V25.0068C27.1523 25.3526 26.9995 25.6808 26.7346 25.9038L24.8571 27.4828C24.6374 27.6675 24.3696 27.7577 24.1034 27.7577C23.7695 27.7577 23.4378 27.6158 23.206 27.3402C22.7894 26.8447 22.8533 26.1057 23.3486 25.6891L24.8086 24.4611V21.4648C24.8086 20.8176 25.3332 20.293 25.9805 20.293V20.293ZM34.8281 15.6641C34.1808 15.6641 33.6562 16.1887 33.6562 16.8359V18.6391C31.778 16.3667 28.9694 15.0136 25.9541 15.0136C20.4438 15.0136 15.9609 19.4965 15.9609 25.0068C15.9609 30.5171 20.4557 35 25.9805 35C27.4902 35 28.9825 34.6599 30.3338 34.0124C30.3567 34.0021 30.3796 33.992 30.402 33.9806C30.4082 33.9771 30.4144 33.9728 30.4205 33.9693C30.5782 33.8918 30.7348 33.8112 30.8884 33.7251C31.4533 33.4093 31.6551 32.6952 31.3391 32.1303C31.0232 31.5654 30.3093 31.3635 29.7444 31.6794C28.6016 32.3184 27.3002 32.6562 25.9805 32.6562C21.748 32.6562 18.3047 29.2246 18.3047 25.0068C18.3047 20.789 21.7361 17.3573 25.9541 17.3573C28.3574 17.3573 30.5892 18.4805 32.0243 20.3516H30.1992C29.5519 20.3516 29.0273 20.8762 29.0273 21.5234C29.0273 22.1707 29.5519 22.6953 30.1992 22.6953H32.4844C34.423 22.6953 36 21.1183 36 19.1797V16.8359C36 16.1887 35.4754 15.6641 34.8281 15.6641V15.6641ZM33.9909 28.9603C33.4546 28.5979 32.7263 28.7392 32.3642 29.2759C32.0021 29.8126 32.1438 30.5409 32.6801 30.903C32.881 31.0385 33.109 31.1035 33.3347 31.1035C33.7114 31.1035 34.0804 30.9225 34.3072 30.5867C34.6686 30.0507 34.5276 29.3224 33.9909 28.9603ZM35.9595 25.3373C35.9519 25.2998 35.9426 25.2629 35.9316 25.2261C35.9203 25.1897 35.9075 25.1533 35.8929 25.1183C35.8782 25.083 35.8618 25.0478 35.8437 25.0143C35.8254 24.9805 35.8061 24.9477 35.7851 24.9159C35.764 24.8839 35.7404 24.8528 35.7164 24.8235C35.6924 24.7935 35.6661 24.7649 35.6391 24.7379C35.6123 24.7108 35.5834 24.6845 35.5537 24.6605C35.5244 24.636 35.4926 24.6131 35.461 24.5921C35.4294 24.571 35.396 24.5511 35.3626 24.5335C35.3285 24.5152 35.2939 24.4989 35.2589 24.4843C35.2236 24.4696 35.1872 24.4566 35.1511 24.4456C35.114 24.4344 35.0765 24.425 35.0396 24.4174C35.0021 24.4099 34.9634 24.4039 34.9254 24.4005C34.8492 24.3927 34.7718 24.3927 34.6951 24.4005C34.6572 24.4039 34.6189 24.4099 34.5814 24.4174C34.5439 24.425 34.5065 24.4344 34.4702 24.4456C34.4338 24.4566 34.3976 24.4696 34.3624 24.4843C34.3271 24.4989 34.2921 24.5152 34.2587 24.5335C34.2246 24.5511 34.1918 24.571 34.1602 24.5921C34.128 24.6131 34.0968 24.636 34.0676 24.6605C34.0378 24.6845 34.009 24.7108 33.9819 24.7379C33.9545 24.7649 33.9286 24.7935 33.9041 24.8235C33.8801 24.8528 33.8572 24.8839 33.8362 24.9159C33.8151 24.9477 33.7952 24.9805 33.7776 25.0143C33.7595 25.0478 33.743 25.083 33.7283 25.1183C33.7137 25.1533 33.7009 25.1897 33.6897 25.2261C33.6787 25.2629 33.6691 25.2998 33.6615 25.3373C33.654 25.3748 33.648 25.4135 33.6446 25.451C33.6405 25.4897 33.6386 25.5284 33.6386 25.5664C33.6386 25.6044 33.6405 25.6431 33.6446 25.6818C33.648 25.7193 33.654 25.758 33.6615 25.7955C33.6693 25.8324 33.6787 25.8699 33.6897 25.9068C33.7009 25.9431 33.7137 25.9795 33.7283 26.0146C33.743 26.0498 33.7595 26.0851 33.7776 26.1185C33.7952 26.1517 33.8151 26.1851 33.8362 26.2169C33.8572 26.2489 33.8801 26.2801 33.9041 26.3094C33.9286 26.3393 33.9545 26.368 33.9819 26.395C34.009 26.422 34.0378 26.4483 34.0676 26.4723C34.0968 26.4964 34.128 26.5197 34.1602 26.5408C34.1918 26.5618 34.2246 26.5817 34.2587 26.5993C34.2921 26.6177 34.3271 26.6339 34.3624 26.6486C34.3976 26.6632 34.4338 26.6763 34.4702 26.6872C34.5065 26.6985 34.5441 26.7078 34.5814 26.7154C34.6189 26.7229 34.6572 26.7289 34.6951 26.7323C34.7331 26.7365 34.7725 26.7383 34.8105 26.7383C34.8487 26.7383 34.8874 26.7365 34.9254 26.7323C34.9634 26.7289 35.0023 26.7229 35.0396 26.7154C35.0767 26.7078 35.1142 26.6985 35.1511 26.6872C35.1872 26.6763 35.2236 26.6632 35.2589 26.6486C35.2939 26.6339 35.3285 26.6177 35.3626 26.5993C35.396 26.5817 35.4294 26.5618 35.461 26.5408C35.4926 26.5197 35.5244 26.4964 35.5537 26.4723C35.5834 26.4483 35.6123 26.422 35.6391 26.395C35.6661 26.368 35.6924 26.3393 35.7164 26.3094C35.7404 26.2801 35.764 26.2489 35.7851 26.2169C35.8061 26.1851 35.8254 26.1517 35.8437 26.1185C35.8618 26.0851 35.8782 26.0498 35.8929 26.0146C35.9075 25.9795 35.9203 25.9431 35.9316 25.9068C35.9426 25.8699 35.9519 25.8324 35.9595 25.7955C35.9673 25.758 35.973 25.7193 35.9767 25.6818C35.9808 25.6431 35.9824 25.6044 35.9824 25.5664C35.9824 25.5284 35.9808 25.4897 35.9767 25.451C35.973 25.4135 35.967 25.3748 35.9595 25.3373ZM15.6094 32.6562H10.6875C9.39523 32.6562 8.34375 31.6048 8.34375 30.3125V12.0312C8.34375 10.739 9.39523 9.6875 10.6875 9.6875H12.1523V10.8594C12.1523 11.5067 12.6769 12.0312 13.3242 12.0312C13.9715 12.0312 14.4961 11.5067 14.4961 10.8594V9.6875H19.7695V10.8594C19.7695 11.5067 20.2941 12.0312 20.9414 12.0312C21.5887 12.0312 22.1133 11.5067 22.1133 10.8594V9.6875H27.4453V10.8594C27.4453 11.5067 27.9699 12.0312 28.6172 12.0312C29.2645 12.0312 29.7891 11.5067 29.7891 10.8594V9.6875H31.3125C32.6048 9.6875 33.6562 10.739 33.6562 12.0312C33.6562 12.6785 34.1808 13.2031 34.8281 13.2031C35.4754 13.2031 36 12.6785 36 12.0312C36 9.44649 33.8973 7.34375 31.3125 7.34375H29.7891V6.17188C29.7891 5.5246 29.2645 5 28.6172 5C27.9699 5 27.4453 5.5246 27.4453 6.17188V7.34375H22.1133V6.17188C22.1133 5.5246 21.5887 5 20.9414 5C20.2941 5 19.7695 5.5246 19.7695 6.17188V7.34375H14.4961V6.17188C14.4961 5.5246 13.9715 5 13.3242 5C12.6769 5 12.1523 5.5246 12.1523 6.17188V7.34375H10.6875C8.10274 7.34375 6 9.44649 6 12.0312V30.3125C6 32.8973 8.10274 35 10.6875 35H15.6094C16.2567 35 16.7812 34.4754 16.7812 33.8281C16.7812 33.1808 16.2567 32.6562 15.6094 32.6562Z" fill="#FFA800"/>
</g>
<defs>
<clipPath id="clip0_627_2">
<rect width="30" height="30" fill="white" transform="translate(6 5)"/>
</clipPath>
</defs>
</svg>
